<svg xmlns="http://www.w3.org/2000/svg" xmlns:xlink="http://www.w3.org/1999/xlink" width="146.906" height="210.652"
     viewBox="0 0 146.906 210.652">
    <defs>
        <clipPath id="clip-path">
            <path id="Path_11374" data-name="Path 11374"
                  d="M397.352,298.426q6.965.154,10.1,2.973a9.907,9.907,0,0,1,3.134,7.751,10.355,10.355,0,0,1-1.644,5.754,14.71,14.71,0,0,1-4.54,4.386,23.13,23.13,0,0,1-6.852,2.819,35.863,35.863,0,0,1-8.574.976q-8.063,0-12.292-2.5t-4.226-7.912a10.018,10.018,0,0,1,1.721-5.754,12.485,12.485,0,0,1,4.463-4.033,9.327,9.327,0,0,1-2.62-2.543,6.484,6.484,0,0,1-1.06-3.8,9.449,9.449,0,0,1,1.291-5.016,13.542,13.542,0,0,1,3.487-3.757,13.492,13.492,0,0,1-4.149-4.656,13.2,13.2,0,0,1-1.567-6.461,14.067,14.067,0,0,1,1.1-5.562,12.936,12.936,0,0,1,3.173-4.5,14.85,14.85,0,0,1,5.131-3.018,20.529,20.529,0,0,1,6.968-1.1,18.882,18.882,0,0,1,6.384,1.021,17.8,17.8,0,0,1,4.894,2.582A12.774,12.774,0,0,1,405.9,264a19.9,19.9,0,0,1,5.876-.822,16.243,16.243,0,0,1,.315,3.288c0,.578-.026,1.175-.077,1.8s-.128,1.252-.238,1.882h-7.045a11.206,11.206,0,0,1,1.329,2.9,12.5,12.5,0,0,1,.469,3.6,13.832,13.832,0,0,1-1.175,5.793,12.677,12.677,0,0,1-3.327,4.425,15.093,15.093,0,0,1-5.131,2.819,20.618,20.618,0,0,1-6.5.976,22.055,22.055,0,0,1-5.793-.706,7.9,7.9,0,0,0-2.151,1.92,4.3,4.3,0,0,0-1.06,2.781,3.464,3.464,0,0,0,1.015,2.466c.681.706,2.19,1.085,4.54,1.137Zm-10.571,6.191A6.529,6.529,0,0,0,381.5,306.5a6.775,6.775,0,0,0-1.76,4.7,5.139,5.139,0,0,0,.706,2.819,5.049,5.049,0,0,0,2,1.76,9.944,9.944,0,0,0,3.057.938,25.681,25.681,0,0,0,3.879.276q6.262,0,9.787-2.074t3.526-5.208a4.436,4.436,0,0,0-1.49-3.6c-1-.835-2.819-1.278-5.484-1.329Zm3.6-19.581q4.229,0,6.262-2.35a8.891,8.891,0,0,0,2.036-6.03,9.156,9.156,0,0,0-2.036-6.146q-2.033-2.389-6.262-2.389t-6.223,2.389a9.27,9.27,0,0,0-2,6.146,9,9,0,0,0,2,6.03Q386.155,285.036,390.384,285.036Zm28.585-38.841c.572-.1,1.214-.18,1.92-.238s1.342-.077,1.92-.077,1.214.026,1.92.077a17.026,17.026,0,0,1,1.92.238v45.263a11.858,11.858,0,0,0,.392,3.442,4.584,4.584,0,0,0,1.06,1.92,3.083,3.083,0,0,0,1.567.861,9.137,9.137,0,0,0,1.92.193c.469,0,1-.026,1.606-.077a9.366,9.366,0,0,0,1.528-.238,23.94,23.94,0,0,1,.706,5.953,10.406,10.406,0,0,1-2.659.507c-1.047.077-2.01.116-2.9.116a15.827,15.827,0,0,1-4.226-.546,9.062,9.062,0,0,1-3.442-1.8,8.5,8.5,0,0,1-2.351-3.365,13.909,13.909,0,0,1-.861-5.247V246.195Zm29.285,39.233q.154,6.579,3.4,9.633t9.595,3.057a28.687,28.687,0,0,0,10.571-1.959,11.925,11.925,0,0,1,1.021,2.858,18.355,18.355,0,0,1,.469,3.327,26.157,26.157,0,0,1-5.677,1.644,39.33,39.33,0,0,1-6.852.552,25.787,25.787,0,0,1-9.4-1.529,16.835,16.835,0,0,1-6.461-4.309,17.061,17.061,0,0,1-3.718-6.576,28.1,28.1,0,0,1-1.175-8.342,29.56,29.56,0,0,1,1.137-8.342,18.831,18.831,0,0,1,3.487-6.737,16.838,16.838,0,0,1,5.915-4.54,19.52,19.52,0,0,1,8.419-1.683,17.522,17.522,0,0,1,7.283,1.413,14.826,14.826,0,0,1,5.247,3.879,16.779,16.779,0,0,1,3.211,5.876,24.011,24.011,0,0,1,1.1,7.4q0,1.1-.077,2.312c-.051.809-.1,1.5-.154,2.074H448.254Zm19.889-5.793a14.727,14.727,0,0,0-.584-4.187,10.671,10.671,0,0,0-1.721-3.487,8.452,8.452,0,0,0-2.9-2.389,9.132,9.132,0,0,0-4.187-.9q-4.778,0-7.321,2.9a14.192,14.192,0,0,0-3.1,8.066h19.806Zm23.646,5.793q.154,6.579,3.4,9.633t9.595,3.057a28.687,28.687,0,0,0,10.571-1.959,11.918,11.918,0,0,1,1.021,2.858,18.35,18.35,0,0,1,.469,3.327,26.154,26.154,0,0,1-5.677,1.644,39.33,39.33,0,0,1-6.852.552,25.787,25.787,0,0,1-9.4-1.529,16.835,16.835,0,0,1-6.461-4.309,17.06,17.06,0,0,1-3.718-6.576,28.1,28.1,0,0,1-1.175-8.342,29.561,29.561,0,0,1,1.137-8.342,18.831,18.831,0,0,1,3.487-6.737,16.838,16.838,0,0,1,5.915-4.54,19.52,19.52,0,0,1,8.419-1.683,17.521,17.521,0,0,1,7.283,1.413,14.827,14.827,0,0,1,5.247,3.879,16.782,16.782,0,0,1,3.211,5.876,24.01,24.01,0,0,1,1.1,7.4q0,1.1-.077,2.312c-.051.809-.1,1.5-.154,2.074H491.789Zm19.889-5.793a14.725,14.725,0,0,0-.584-4.187,10.67,10.67,0,0,0-1.721-3.487,8.452,8.452,0,0,0-2.9-2.389,9.151,9.151,0,0,0-4.187-.9q-4.778,0-7.321,2.9a14.192,14.192,0,0,0-3.1,8.066h19.806Z"
                  transform="translate(-231.46 246.565)"/>
        </clipPath>
        <linearGradient id="linear-gradient" x1="0.5" y1="0.001" x2="0.5" y2="0.953" gradientUnits="objectBoundingBox">
            <stop offset="0" stop-color="#ffc646"/>
            <stop offset="0.25" stop-color="#fb8762"/>
            <stop offset="0.5" stop-color="#f62a8b"/>
            <stop offset="0.75" stop-color="#ad0da3"/>
            <stop offset="1" stop-color="#6b00b2"/>
        </linearGradient>
    </defs>
    <g id="Group_3444" data-name="Group 3444" transform="translate(-141 -358)">
        <g id="Mask_Group_1" data-name="Mask Group 1" transform="translate(0 -1)" clip-path="url(#clip-path)">
            <g id="Group_3443" data-name="Group 3443">
                <rect id="Rectangle_3325" data-name="Rectangle 3325" width="152.522" height="25.736"
                      transform="translate(138 492.445)" fill="#fff"/>
                <rect id="Rectangle_3326" data-name="Rectangle 3326" width="152.522" height="25.736"
                      transform="translate(138 518.181)" fill="#ddd"/>
                <rect id="Rectangle_3327" data-name="Rectangle 3327" width="152.522" height="25.736"
                      transform="translate(138 543.916)" fill="#8e8e8e"/>
            </g>
        </g>
        <path id="Path_11371" data-name="Path 11371"
              d="M265.324,205.93V228.8l-55.2,31.935v-22.6ZM190.81,271.514v22.865l38.637,22.737,19.585-11.433V328.42l38.9-22.473V238l-58.485,33.777L249.16,283.21l19.383-11.433V294.71l-19.517,10.974-38.9-22.473V260.737Z"
              transform="translate(-24.81 152.07)" fill="url(#linear-gradient)"/>
    </g>
</svg>
